<svg width="21" height="22" viewBox="0 0 21 22" fill="none" xmlns="http://www.w3.org/2000/svg">
<path d="M13.7549 8.77845L5.6091 17.0717H4.4216V15.8627L12.5674 7.56946M13.7549 8.77845L12.5674 7.56946M13.7549 8.77845L13.1508 8.18456L12.5674 7.56946M16.0883 6.38168L14.9216 5.1939M2.75493 18.7685V15.1628L13.7549 3.98491C13.9216 3.82937 14.1056 3.70917 14.307 3.62433C14.5084 3.53949 14.7202 3.49707 14.9424 3.49707C15.1647 3.49707 15.3799 3.53949 15.5883 3.62433C15.7966 3.70917 15.9772 3.83644 16.1299 4.00612L17.2758 5.1939C17.4424 5.34944 17.564 5.53326 17.6403 5.74537C17.7167 5.95747 17.7549 6.16958 17.7549 6.38168C17.7549 6.60792 17.7167 6.82356 17.6403 7.02859C17.564 7.23363 17.4424 7.42099 17.2758 7.59067L6.2966 18.7685H2.75493Z" stroke="white"/>
</svg>
