<svg width="25" height="25" viewBox="0 0 25 25" fill="none" xmlns="http://www.w3.org/2000/svg">
<path d="M18.2901 22.9341H6.71008C3.97008 22.9341 1.75008 20.7041 1.75008 17.9641V10.5541C1.75008 9.19406 2.59008 7.48406 3.67008 6.64406L9.06008 2.44406C10.6801 1.18406 13.2701 1.12406 14.9501 2.30406L21.1301 6.63406C22.3201 7.46406 23.2501 9.24406 23.2501 10.6941V17.9741C23.2501 20.7041 21.0301 22.9341 18.2901 22.9341ZM9.98008 3.62406L4.59008 7.82406C3.88008 8.38406 3.25008 9.65406 3.25008 10.5541V17.9641C3.25008 19.8741 4.80008 21.4341 6.71008 21.4341H18.2901C20.2001 21.4341 21.7501 19.8841 21.7501 17.9741V10.6941C21.7501 9.73406 21.0601 8.40406 20.2701 7.86406L14.0901 3.53406C12.9501 2.73406 11.0701 2.77406 9.98008 3.62406Z" fill="white"/>
<path d="M12.5001 18.9341C12.0901 18.9341 11.7501 18.5941 11.7501 18.1841V15.1841C11.7501 14.7741 12.0901 14.4341 12.5001 14.4341C12.9101 14.4341 13.2501 14.7741 13.2501 15.1841V18.1841C13.2501 18.5941 12.9101 18.9341 12.5001 18.9341Z" fill="white"/>
</svg>
