<svg width="25" height="25" viewBox="0 0 25 25" fill="none" xmlns="http://www.w3.org/2000/svg">
<path d="M20.5001 8.49194V18.2419C20.5001 21.2419 18.7101 22.2419 16.5001 22.2419H8.50008C6.29008 22.2419 4.50008 21.2419 4.50008 18.2419V8.49194C4.50008 5.24194 6.29008 4.49194 8.50008 4.49194C8.50008 5.11194 8.75005 5.67194 9.16005 6.08194C9.57005 6.49194 10.1301 6.74194 10.7501 6.74194H14.2501C15.4901 6.74194 16.5001 5.73194 16.5001 4.49194C18.7101 4.49194 20.5001 5.24194 20.5001 8.49194Z" stroke="white" stroke-width="1.5" stroke-linecap="round" stroke-linejoin="round"/>
<path d="M16.5001 4.49194C16.5001 5.73194 15.4901 6.74194 14.2501 6.74194H10.7501C10.1301 6.74194 9.57005 6.49194 9.16005 6.08194C8.75005 5.67194 8.50008 5.11194 8.50008 4.49194C8.50008 3.25194 9.51008 2.24194 10.7501 2.24194H14.2501C14.8701 2.24194 15.4301 2.49195 15.8401 2.90195C16.2501 3.31195 16.5001 3.87194 16.5001 4.49194Z" stroke="white" stroke-width="1.5" stroke-linecap="round" stroke-linejoin="round"/>
<path d="M8.50008 13.2419H12.5001" stroke="white" stroke-width="1.5" stroke-linecap="round" stroke-linejoin="round"/>
<path d="M8.50008 17.2419H16.5001" stroke="white" stroke-width="1.5" stroke-linecap="round" stroke-linejoin="round"/>
</svg>
