<svg width="25" height="25" viewBox="0 0 25 25" fill="none" xmlns="http://www.w3.org/2000/svg">
<ellipse cx="12.324" cy="7.62886" rx="4.77803" ry="4.77803" stroke="white" stroke-width="1.5" stroke-linecap="round" stroke-linejoin="round"/>
<path fill-rule="evenodd" clip-rule="evenodd" d="M4.74509 19.0521C4.7438 18.7163 4.81892 18.3845 4.96477 18.0819C5.42243 17.1666 6.71305 16.6814 7.78399 16.4618C8.55635 16.2969 9.33938 16.1868 10.1272 16.1322C11.5859 16.0041 13.053 16.0041 14.5117 16.1322C15.2995 16.1874 16.0825 16.2976 16.8549 16.4618C17.9259 16.6814 19.2165 17.1208 19.6742 18.0819C19.9674 18.6987 19.9674 19.4148 19.6742 20.0315C19.2165 20.9926 17.9259 21.432 16.8549 21.6425C16.0835 21.8142 15.3002 21.9274 14.5117 21.9812C13.3244 22.0818 12.1317 22.1002 10.9419 22.0361C10.6673 22.0361 10.4018 22.0361 10.1272 21.9812C9.3417 21.9281 8.56139 21.8148 7.79314 21.6425C6.71305 21.432 5.43159 20.9926 4.96477 20.0315C4.81967 19.7255 4.74462 19.3909 4.74509 19.0521Z" stroke="white" stroke-width="1.5" stroke-linecap="round" stroke-linejoin="round"/>
</svg>
