<svg width="25" height="25" viewBox="0 0 25 25" fill="none" xmlns="http://www.w3.org/2000/svg">
<path d="M3.51008 11.3528V15.8428C3.51008 20.3328 5.31008 22.1328 9.80008 22.1328H15.1901C19.6801 22.1328 21.4801 20.3328 21.4801 15.8428V11.3528" stroke="white" stroke-width="1.5" stroke-linecap="round" stroke-linejoin="round"/>
<path d="M12.5001 12.1328C14.3301 12.1328 15.6801 10.6428 15.5001 8.81281L14.8401 2.13281H10.1701L9.50008 8.81281C9.32008 10.6428 10.6701 12.1328 12.5001 12.1328Z" stroke="white" stroke-width="1.5" stroke-linecap="round" stroke-linejoin="round"/>
<path d="M18.8101 12.1328C20.8301 12.1328 22.3101 10.4928 22.1101 8.48281L21.8301 5.73281C21.4701 3.13281 20.4701 2.13281 17.8501 2.13281H14.8001L15.5001 9.14281C15.6701 10.7928 17.1601 12.1328 18.8101 12.1328Z" stroke="white" stroke-width="1.5" stroke-linecap="round" stroke-linejoin="round"/>
<path d="M6.14007 12.1328C7.79007 12.1328 9.28007 10.7928 9.44007 9.14281L9.66007 6.93281L10.1401 2.13281H7.09007C4.47007 2.13281 3.47007 3.13281 3.11007 5.73281L2.84007 8.48281C2.64007 10.4928 4.12007 12.1328 6.14007 12.1328Z" stroke="white" stroke-width="1.5" stroke-linecap="round" stroke-linejoin="round"/>
<path d="M12.5001 17.1328C10.8301 17.1328 10.0001 17.9628 10.0001 19.6328V22.1328H15.0001V19.6328C15.0001 17.9628 14.1701 17.1328 12.5001 17.1328Z" stroke="white" stroke-width="1.5" stroke-linecap="round" stroke-linejoin="round"/>
</svg>
